# xmcd
#
# Track frame offsets: 
#        150
#        20870
#        37052
#        55391
#        71532
#        88167
#        120033
#        139740
#        152858
#        166981
#        189341
#        204099
#        220232
#        235417
#        253271
#        268501
#        292418
#        321094
#        336130
#
# Disc length: 4690 seconds
#
# Revision: 0
# Processed by: cddbd v1.5.2PL0 Copyright (c) Steve Scherf et al.
# Submitted via: ExactAudioCopy v0.99pb4
#
DISCID=23125013
DTITLE=Various Artist - 20th Aniversary of Blues
DYEAR=1900
DGENRE=Blues
TTITLE0=Brick: Albert Collins
TTITLE1=Boot Hill: Johnny Winter
TTITLE2=You Don't Exist Any More: Lil'Ed and the Blues Imperials
TTITLE3=Eyeballin': Lonny Brooks
TTITLE4=Strike Like Lightning: Lonny Mack
TTITLE5=Going Back Home: Son Seals
TTITLE6=Full Moon on Main Street: The Kinsey Report
TTITLE7=Going Down to Big Mary's: The Paladins
TTITLE8=These Blues is Killing Me: AC Reed and SRV
TTITLE9=Black Cat Bone: Albert Collins and Johnny Copela
TTITLE10=Leaving Your Town: Charlie Musselwhite
TTITLE11=Give Me Back My Wig: Hound Dog Tailor and the House Rockers
TTITLE12=No Cuttin' Loose: James Cotton
TTITLE13=Serves Me Right To Suffer: Jimmy Johnson
TTITLE14=Look But Don't Touch: Kenny Neal
TTITLE15=Rain: Little Charlie and The Nightcats
TTITLE16=Drowin On Dry Land: Roy Buchanan
TTITLE17=Leavin': The Siegal-Schwall Band
TTITLE18=Double Eyed Whammy: Tinsley Ellis
EXTD=
EXTT0=
EXTT1=
EXTT2=
EXTT3=
EXTT4=
EXTT5=
EXTT6=
EXTT7=
EXTT8=
EXTT9=
EXTT10=
EXTT11=
EXTT12=
EXTT13=
EXTT14=
EXTT15=
EXTT16=
EXTT17=
EXTT18=
PLAYORDER=
